/* XPM */
static char *b14bfe4af8d44c5ccb210ebbb328b845[] = {
/* columns rows colors chars-per-pixel */
"48 48 92 1 ",
"  c #081D38",
". c #0F2137",
"X c #102237",
"o c #122337",
"O c #132337",
"+ c #162436",
"@ c #172536",
"# c #172636",
"$ c #182636",
"% c #192636",
"& c #1A2636",
"* c #212A35",
"= c #242C35",
"- c #292F34",
"; c #2F2E34",
": c #2C3034",
"> c #303133",
", c #313233",
"< c #323333",
"1 c gray20",
"2 c #343333",
"3 c #343433",
"4 c #353433",
"5 c #363433",
"6 c #393732",
"7 c #3B3732",
"8 c #3E3932",
"9 c #483D31",
"0 c #5A462F",
"q c #5A472F",
"w c #5E482E",
"e c #5F482F",
"r c #4E4031",
"t c #614B2E",
"y c #634A2E",
"u c #74532C",
"i c #76532C",
"p c #73552C",
"a c #77552C",
"s c #79552C",
"d c #875C2A",
"f c #885C2A",
"g c #8C5F29",
"h c #8D5F29",
"j c #916129",
"k c #926329",
"l c #966429",
"z c #A26A27",
"x c #A76C26",
"c c #A96D27",
"v c #AA6D26",
"b c #AB6D26",
"n c #AC6E26",
"m c #AD6F26",
"M c #AF7026",
"N c #B47225",
"B c #BC7624",
"V c #BF7724",
"C c #B87825",
"Z c #C67B23",
"A c #C77C23",
"S c #C37A24",
"D c #C57A24",
"F c #C87D23",
"G c #C97D23",
"H c #CD7E23",
"J c #CD7F23",
"K c #F7931E",
"L c #FE951E",
"P c #FC961E",
"I c #FF981D",
"U c #FF991D",
"Y c #FF9A1C",
"T c #FF9D1C",
"R c #EEA01B",
"E c #FFA11B",
"W c #FFA21B",
"Q c #FFA719",
"! c #FFA919",
"~ c #FFB118",
"^ c #CC8222",
"/ c #D18122",
"( c #D08023",
") c #D58222",
"_ c #D48322",
"` c #D98521",
"' c #DC8621",
"] c #DE8721",
"[ c #E18920",
"{ c #E58A20",
"} c #E48C20",
"| c None",
/* pixels */
"||||||||||||||||||||||||||||||||||||||||||||||||",
"||||||||||||||||||||||||||||||||||||||||||||||||",
"||||||||||||||||||||||||||||||||||||||||||||||||",
"||||||||||||||||||||||||||||||||||||||||||||||||",
"||||||||||||||||||||||||||||||||||||||||||||||||",
"||||||||||||||||||||||||||||||||||||||||||||||||",
"||||||||||||||||||||||||||||||||||||||||||||||||",
"||||||||||||||||||||||||||||||||||||||||||||||||",
"||||||||||||||||||||||||||||||||||||||||||||||||",
"||||||||||||||||||||||||||||||||||||||||||||||||",
"||||||||||||||||||||||F//DM|||||||||||||||||||||",
"|||||||||||||||||||D'[])JAFBc|||||||||||||||||||",
"||||||||||||||||||S[)JSNmmmcxzd|||||||||||||||||",
"||||||||||||||||||`mml|||||fjgga||||||||||||||||",
"||||||||||||||||||YJ|||||||||siie|||||||||||||||",
"||||||||||||||||||YI||||||||||ye0|||||||||||||||",
"||||||||||||||||||WQI||||||||||r98||||||||||||||",
"|||||||||||||||||Oy^!~|||||||||744||||||||||||||",
"|||||||||||||||44,.+pR}%-2|||||,,1||||||||||||||",
"||||||||||||||,41|4: ;Ck*,,|||||,4||||||||||||||",
"||||||||||||||4,1|||||+q8:1|||||,4,|||||||||||||",
"||||||||||||||,41|||||,=,41|||||4,||||||||||||||",
"||||||||||||||4,1||||||1,4|||||1,4||||||||||||||",
"||||||||||||||,41||||||||||||||14,||||||||||||||",
"|||||||||||||||,4,|||||||||||||4,4||||||||||||||",
"|||||||||||||||4,4,|||||||||||4,4|||||||||||||||",
"||||||||||||||||4,,4|||||||||4,4,|||||||||||||||",
"|||||||||||||||||44,4,|||||,,,4,||||||||||||||||",
"||||||||||||||||||,4,4,4,4,444,|||||||||||||||||",
"|||||||||||||||||||,4,4,4,4,,|||||||||||||||||||",
"||||||||||||||||||||||4,,44|||||||||||||||||||||",
"||||||||||||||||||||||||||||||||||||||||||||||||",
"||||||||||||||||||||||||||||||||||||||||||||||||",
"||||||||||||||||||||||||||||||||||||||||||||||||",
"||||||||||||||||||||||||||||||||||||||||||||||||",
"||||||||||||||||||||||||||||||||||||||||||||||||",
"||||||||||||||||||||||||||||||||||||||||||||||||",
"|||K||||KI||+4|||,4|||||||||||||,||4,||,4|||4,||",
"||KKK|K|KW|%,|1|,4|,|4,|,4,||,44||4,4||4|,|,||||",
"||KKK|K||||O||||4|||4,4|4,4,|4|,||,4,4,||||4||||",
"||KK|KK||Y|%||||,|||,|4,,|4,4,,4|||,,|4||||4||||",
"||K||||||W|O,|4||4|4||,4|||4,|4,||4|4||,|4|,||||",
"||||||||||||||||||||||||||||||||||||||||||||||||",
"||||||||||||||||||||||||||||||||||||||||||||||||",
"||||||||||||||||||||||||||||||||||||||||||||||||",
"||||||||||||||||||||||||||||||||||||||||||||||||",
"||||||||||||||||||||||||||||||||||||||||||||||||",
"||||||||||||||||||||||||||||||||||||||||||||||||"
};
