/* XPM */
static char *ed0b8614e0774449990a88dd2c353e2e[] = {
/* columns rows colors chars-per-pixel */
"32 32 48 1 ",
"  c #0A1E38",
". c #162436",
"X c #1E2936",
"o c #212A35",
"O c #252C35",
"+ c #262D34",
"@ c #292E34",
"# c #2C2F34",
"$ c #2D3034",
"% c #303233",
"& c #313233",
"* c #323333",
"= c gray20",
"- c #363433",
"; c #363533",
": c #3B3732",
"> c #4D4030",
", c #524230",
"< c #534330",
"1 c #614A2E",
"2 c #71512D",
"3 c #74542C",
"4 c #7B562C",
"5 c #835A2B",
"6 c #835B2B",
"7 c #956329",
"8 c #9A6528",
"9 c #9D6728",
"0 c #9D6828",
"q c #A26A27",
"w c #A66B27",
"e c #A66F26",
"r c #B47226",
"t c #BC7625",
"y c #C67C24",
"u c #CE7F23",
"i c #E78D1F",
"p c #EF971E",
"a c #F7931E",
"s c #F8941E",
"d c #FE9A1C",
"f c #FFA11B",
"g c #FFAB19",
"h c #D18023",
"j c #D98521",
"k c #DA8522",
"l c #E38A21",
"z c None",
/* pixels */
"zzzzzzzzzzzzzzzzzzzzzzzzzzzzzzzz",
"zzzzzzzzzzzzzzzzzzzzzzzzzzzzzzzz",
"zzzzzzzzzzzzzzzzzzzzzzzzzzzzzzzz",
"zzzzzzzzzzzzzzzzzzzzzzzzzzzzzzzz",
"zzzzzzzzzzzzzzzzzzzzzzzzzzzzzzzz",
"zzzzzzzzzzzzzzzzzzzzzzzzzzzzzzzz",
"zzzzzzzzzzzzzzzzzzzzzzzzzzzzzzzz",
"zzzzzzzzzzzzzklkuyrzzzzzzzzzzzzz",
"zzzzzzzzzzzzhtw9870q6zzzzzzzzzzz",
"zzzzzzzzzzzzszzzzzz241zzzzzzzzzz",
"zzzzzzzzzzzzgfzzzzzz<<zzzzzzzzzz",
"zzzzzzzzzzzX3pgzzzzzz-=zzzzzzzzz",
"zzzzzzzzzz-$ #e6Ozzzz==zzzzzzzzz",
"zzzzzzzzz==zzz.>:=zzz==zzzzzzzzz",
"zzzzzzzzz==zzzz@=zzzz==zzzzzzzzz",
"zzzzzzzzzz==zzzzzzzzz==zzzzzzzzz",
"zzzzzzzzzz==zzzzzzzz==zzzzzzzzzz",
"zzzzzzzzzzz==zzzzzz===zzzzzzzzzz",
"zzzzzzzzzzzz=========zzzzzzzzzzz",
"zzzzzzzzzzzzz======zzzzzzzzzzzzz",
"zzzzzzzzzzzzzzzzzzzzzzzzzzzzzzzz",
"zzzzzzzzzzzzzzzzzzzzzzzzzzzzzzzz",
"zzzzzzzzzzzzzzzzzzzzzzzzzzzzzzzz",
"zzzzzzzzzzzzzzzzzzzzzzzzzzzzzzzz",
"zzzzzzzzzzzzzzzzzzzzzzzzzzzzzzzz",
"zzaazdizozz-zz=z==zz==z====z==zz",
"zzaazzzzzz=zz========zz=z=zzz=zz",
"zzazzzzzOzz==zz=zz===zzzzz=zz=zz",
"zzzzzzzzzzzzzzzzzzzzzzzzzzzzzzzz",
"zzzzzzzzzzzzzzzzzzzzzzzzzzzzzzzz",
"zzzzzzzzzzzzzzzzzzzzzzzzzzzzzzzz",
"zzzzzzzzzzzzzzzzzzzzzzzzzzzzzzzz"
};
