/* XPM */
static char *e7463032f138425ef56acea4af1945c4[] = {
/* columns rows colors chars-per-pixel */
"128 128 60 1 ",
"  c #0C1E37",
". c #071D38",
"X c #0E2037",
"o c #0D2038",
"O c #152436",
"+ c #1C2735",
"@ c #1C2835",
"# c #242B35",
"$ c #2B2D35",
"% c #2E3134",
"& c #333333",
"* c #393633",
"= c #3E3932",
"- c #443B31",
"; c #4B3E31",
": c #55432F",
"> c #5B462F",
", c #5F482E",
"< c #4E4030",
"1 c #524230",
"2 c #644B2E",
"3 c #6B4F2D",
"4 c #6F502D",
"5 c #74522C",
"6 c #7B562B",
"7 c #7E582B",
"8 c #835A2A",
"9 c #8B5E2A",
"0 c #8F6029",
"q c #9C6727",
"w c #9F6827",
"e c #936229",
"r c #9A6528",
"t c #9E6828",
"y c #A36A27",
"u c #AB6E26",
"i c #A06728",
"p c #AD7026",
"a c #B47225",
"s c #BB7625",
"d c #BF7824",
"f c #C37A24",
"g c #CB7E23",
"h c #EC8E1F",
"j c #EF931E",
"k c #F7931E",
"l c #FC951E",
"z c #FF9B1C",
"x c #F3A01B",
"c c #FFA41A",
"v c #FFAA19",
"b c #FFB417",
"n c #CF8023",
"m c #D48222",
"M c #DB8521",
"N c #DE8A21",
"B c #E18720",
"V c #E48A20",
"C c #EB8C20",
"Z c None",
/* pixels */
"ZZZZZZZZZZZZZZZZZZZZZZZZZZZZZZZZZZZZZZZZZZZZZZZZZZZZZZZZZZZZZZZZZZZZZZZZZZZZZZZZZZZZZZZZZZZZZZZZZZZZZZZZZZZZZZZZZZZZZZZZZZZZZZZZ",
"ZZZZZZZZZZZZZZZZZZZZZZZZZZZZZZZZZZZZZZZZZZZZZZZZZZZZZZZZZZZZZZZZZZZZZZZZZZZZZZZZZZZZZZZZZZZZZZZZZZZZZZZZZZZZZZZZZZZZZZZZZZZZZZZZ",
"ZZZZZZZZZZZZZZZZZZZZZZZZZZZZZZZZZZZZZZZZZZZZZZZZZZZZZZZZZZZZZZZZZZZZZZZZZZZZZZZZZZZZZZZZZZZZZZZZZZZZZZZZZZZZZZZZZZZZZZZZZZZZZZZZ",
"ZZZZZZZZZZZZZZZZZZZZZZZZZZZZZZZZZZZZZZZZZZZZZZZZZZZZZZZZZZZZZZZZZZZZZZZZZZZZZZZZZZZZZZZZZZZZZZZZZZZZZZZZZZZZZZZZZZZZZZZZZZZZZZZZ",
"ZZZZZZZZZZZZZZZZZZZZZZZZZZZZZZZZZZZZZZZZZZZZZZZZZZZZZZZZZZZZZZZZZZZZZZZZZZZZZZZZZZZZZZZZZZZZZZZZZZZZZZZZZZZZZZZZZZZZZZZZZZZZZZZZ",
"ZZZZZZZZZZZZZZZZZZZZZZZZZZZZZZZZZZZZZZZZZZZZZZZZZZZZZZZZZZZZZZZZZZZZZZZZZZZZZZZZZZZZZZZZZZZZZZZZZZZZZZZZZZZZZZZZZZZZZZZZZZZZZZZZ",
"ZZZZZZZZZZZZZZZZZZZZZZZZZZZZZZZZZZZZZZZZZZZZZZZZZZZZZZZZZZZZZZZZZZZZZZZZZZZZZZZZZZZZZZZZZZZZZZZZZZZZZZZZZZZZZZZZZZZZZZZZZZZZZZZZ",
"ZZZZZZZZZZZZZZZZZZZZZZZZZZZZZZZZZZZZZZZZZZZZZZZZZZZZZZZZZZZZZZZZZZZZZZZZZZZZZZZZZZZZZZZZZZZZZZZZZZZZZZZZZZZZZZZZZZZZZZZZZZZZZZZZ",
"ZZZZZZZZZZZZZZZZZZZZZZZZZZZZZZZZZZZZZZZZZZZZZZZZZZZZZZZZZZZZZZZZZZZZZZZZZZZZZZZZZZZZZZZZZZZZZZZZZZZZZZZZZZZZZZZZZZZZZZZZZZZZZZZZ",
"ZZZZZZZZZZZZZZZZZZZZZZZZZZZZZZZZZZZZZZZZZZZZZZZZZZZZZZZZZZZZZZZZZZZZZZZZZZZZZZZZZZZZZZZZZZZZZZZZZZZZZZZZZZZZZZZZZZZZZZZZZZZZZZZZ",
"ZZZZZZZZZZZZZZZZZZZZZZZZZZZZZZZZZZZZZZZZZZZZZZZZZZZZZZZZZZZZZZZZZZZZZZZZZZZZZZZZZZZZZZZZZZZZZZZZZZZZZZZZZZZZZZZZZZZZZZZZZZZZZZZZ",
"ZZZZZZZZZZZZZZZZZZZZZZZZZZZZZZZZZZZZZZZZZZZZZZZZZZZZZZZZZZZZZZZZZZZZZZZZZZZZZZZZZZZZZZZZZZZZZZZZZZZZZZZZZZZZZZZZZZZZZZZZZZZZZZZZ",
"ZZZZZZZZZZZZZZZZZZZZZZZZZZZZZZZZZZZZZZZZZZZZZZZZZZZZZZZZZZZZZZZZZZZZZZZZZZZZZZZZZZZZZZZZZZZZZZZZZZZZZZZZZZZZZZZZZZZZZZZZZZZZZZZZ",
"ZZZZZZZZZZZZZZZZZZZZZZZZZZZZZZZZZZZZZZZZZZZZZZZZZZZZZZZZZZZZZZZZZZZZZZZZZZZZZZZZZZZZZZZZZZZZZZZZZZZZZZZZZZZZZZZZZZZZZZZZZZZZZZZZ",
"ZZZZZZZZZZZZZZZZZZZZZZZZZZZZZZZZZZZZZZZZZZZZZZZZZZZZZZZZZZZZZZZZZZZZZZZZZZZZZZZZZZZZZZZZZZZZZZZZZZZZZZZZZZZZZZZZZZZZZZZZZZZZZZZZ",
"ZZZZZZZZZZZZZZZZZZZZZZZZZZZZZZZZZZZZZZZZZZZZZZZZZZZZZZZZZZZZZZZZZZZZZZZZZZZZZZZZZZZZZZZZZZZZZZZZZZZZZZZZZZZZZZZZZZZZZZZZZZZZZZZZ",
"ZZZZZZZZZZZZZZZZZZZZZZZZZZZZZZZZZZZZZZZZZZZZZZZZZZZZZZZZZZZZZZZZZZZZZZZZZZZZZZZZZZZZZZZZZZZZZZZZZZZZZZZZZZZZZZZZZZZZZZZZZZZZZZZZ",
"ZZZZZZZZZZZZZZZZZZZZZZZZZZZZZZZZZZZZZZZZZZZZZZZZZZZZZZZZZZZZZZZZZZZZZZZZZZZZZZZZZZZZZZZZZZZZZZZZZZZZZZZZZZZZZZZZZZZZZZZZZZZZZZZZ",
"ZZZZZZZZZZZZZZZZZZZZZZZZZZZZZZZZZZZZZZZZZZZZZZZZZZZZZZZZZZZZZZZZZZZZZZZZZZZZZZZZZZZZZZZZZZZZZZZZZZZZZZZZZZZZZZZZZZZZZZZZZZZZZZZZ",
"ZZZZZZZZZZZZZZZZZZZZZZZZZZZZZZZZZZZZZZZZZZZZZZZZZZZZZZZZZZZZZZZZZZZZZZZZZZZZZZZZZZZZZZZZZZZZZZZZZZZZZZZZZZZZZZZZZZZZZZZZZZZZZZZZ",
"ZZZZZZZZZZZZZZZZZZZZZZZZZZZZZZZZZZZZZZZZZZZZZZZZZZZZZZZZZZZZZZZZZZZZZZZZZZZZZZZZZZZZZZZZZZZZZZZZZZZZZZZZZZZZZZZZZZZZZZZZZZZZZZZZ",
"ZZZZZZZZZZZZZZZZZZZZZZZZZZZZZZZZZZZZZZZZZZZZZZZZZZZZZZZZZZZZZZZZZZZZZZZZZZZZZZZZZZZZZZZZZZZZZZZZZZZZZZZZZZZZZZZZZZZZZZZZZZZZZZZZ",
"ZZZZZZZZZZZZZZZZZZZZZZZZZZZZZZZZZZZZZZZZZZZZZZZZZZZZZZZZZZZZZZZZZZZZZZZZZZZZZZZZZZZZZZZZZZZZZZZZZZZZZZZZZZZZZZZZZZZZZZZZZZZZZZZZ",
"ZZZZZZZZZZZZZZZZZZZZZZZZZZZZZZZZZZZZZZZZZZZZZZZZZZZZZZZZZZZZZZZZZZZZZZZZZZZZZZZZZZZZZZZZZZZZZZZZZZZZZZZZZZZZZZZZZZZZZZZZZZZZZZZZ",
"ZZZZZZZZZZZZZZZZZZZZZZZZZZZZZZZZZZZZZZZZZZZZZZZZZZZZZZZZZZZZZZZZZZZZZZZZZZZZZZZZZZZZZZZZZZZZZZZZZZZZZZZZZZZZZZZZZZZZZZZZZZZZZZZZ",
"ZZZZZZZZZZZZZZZZZZZZZZZZZZZZZZZZZZZZZZZZZZZZZZZZZZZZZZZZZZZZZZZZZZZZZZZZZZZZZZZZZZZZZZZZZZZZZZZZZZZZZZZZZZZZZZZZZZZZZZZZZZZZZZZZ",
"ZZZZZZZZZZZZZZZZZZZZZZZZZZZZZZZZZZZZZZZZZZZZZZZZZZZZZZZZZZZfagmNnmgdpZZZZZZZZZZZZZZZZZZZZZZZZZZZZZZZZZZZZZZZZZZZZZZZZZZZZZZZZZZZ",
"ZZZZZZZZZZZZZZZZZZZZZZZZZZZZZZZZZZZZZZZZZZZZZZZZZZZZZZZfgMNVCNmmNmgnmgfsuZZZZZZZZZZZZZZZZZZZZZZZZZZZZZZZZZZZZZZZZZZZZZZZZZZZZZZZ",
"ZZZZZZZZZZZZZZZZZZZZZZZZZZZZZZZZZZZZZZZZZZZZZZZZZZZZZfNVVBMmmmmngggfffffffprZZZZZZZZZZZZZZZZZZZZZZZZZZZZZZZZZZZZZZZZZZZZZZZZZZZZ",
"ZZZZZZZZZZZZZZZZZZZZZZZZZZZZZZZZZZZZZZZZZZZZZZZZZZZfVCVmMmmngggfffsfssssaaaspeZZZZZZZZZZZZZZZZZZZZZZZZZZZZZZZZZZZZZZZZZZZZZZZZZZ",
"ZZZZZZZZZZZZZZZZZZZZZZZZZZZZZZZZZZZZZZZZZZZZZZZZZsBCBmmmmgggggfffssssaaappuuppi7ZZZZZZZZZZZZZZZZZZZZZZZZZZZZZZZZZZZZZZZZZZZZZZZZ",
"ZZZZZZZZZZZZZZZZZZZZZZZZZZZZZZZZZZZZZZZZZZZZZZZZsjNmmnggggfffdfsssaapppuuuyiiiiy9ZZZZZZZZZZZZZZZZZZZZZZZZZZZZZZZZZZZZZZZZZZZZZZZ",
"ZZZZZZZZZZZZZZZZZZZZZZZZZZZZZZZZZZZZZZZZZZZZZZZuZMMgggfgffsffssssaaaapyyyyttrreer9ZZZZZZZZZZZZZZZZZZZZZZZZZZZZZZZZZZZZZZZZZZZZZZ",
"ZZZZZZZZZZZZZZZZZZZZZZZZZZZZZZZZZZZZZZZZZZZZZZZjZZgggffffffauute00ririuytrreee00909ZZZZZZZZZZZZZZZZZZZZZZZZZZZZZZZZZZZZZZZZZZZZZ",
"ZZZZZZZZZZZZZZZZZZZZZZZZZZZZZZZZZZZZZZZZZZZZZZZCzZindsffsueZZZZZZZZZZZ80rre000988888ZZZZZZZZZZZZZZZZZZZZZZZZZZZZZZZZZZZZZZZZZZZZ",
"ZZZZZZZZZZZZZZZZZZZZZZZZZZZZZZZZZZZZZZZZZZZZZZZBclZiffsrZZZZZZZZZZZZZZZZZ7e0888887676ZZZZZZZZZZZZZZZZZZZZZZZZZZZZZZZZZZZZZZZZZZZ",
"ZZZZZZZZZZZZZZZZZZZZZZZZZZZZZZZZZZZZZZZZZZZZZZZVlzBZpyZZZZZZZZZZZZZZZZZZZZZ78877655554ZZZZZZZZZZZZZZZZZZZZZZZZZZZZZZZZZZZZZZZZZZ",
"ZZZZZZZZZZZZZZZZZZZZZZZZZZZZZZZZZZZZZZZZZZZZZZZVlkzBZZZZZZZZZZZZZZZZZZZZZZZZ5865545434,ZZZZZZZZZZZZZZZZZZZZZZZZZZZZZZZZZZZZZZZZZ",
"ZZZZZZZZZZZZZZZZZZZZZZZZZZZZZZZZZZZZZZZZZZZZZZZVzkkzZZZZZZZZZZZZZZZZZZZZZZZZZ,544332222ZZZZZZZZZZZZZZZZZZZZZZZZZZZZZZZZZZZZZZZZZ",
"ZZZZZZZZZZZZZZZZZZZZZZZZZZZZZZZZZZZZZZZZZZZZZZZVlkkllZZZZZZZZZZZZZZZZZZZZZZZZZ,32222,,,>ZZZZZZZZZZZZZZZZZZZZZZZZZZZZZZZZZZZZZZZZ",
"ZZZZZZZZZZZZZZZZZZZZZZZZZZZZZZZZZZZZZZZZZZZZZZZVlkkklCZZZZZZZZZZZZZZZZZZZZZZZZZ:2,,>>:::;ZZZZZZZZZZZZZZZZZZZZZZZZZZZZZZZZZZZZZZZ",
"ZZZZZZZZZZZZZZZZZZZZZZZZZZZZZZZZZZZZZZZZZZZZZZZClkkkllkZZZZZZZZZZZZZZZZZZZZZZZZZ1,:11<<<;ZZZZZZZZZZZZZZZZZZZZZZZZZZZZZZZZZZZZZZZ",
"ZZZZZZZZZZZZZZZZZZZZZZZZZZZZZZZZZZZZZZZZZZZZZZZkzkkkkllNZZZZZZZZZZZZZZZZZZZZZZZZZ11;;;<--=ZZZZZZZZZZZZZZZZZZZZZZZZZZZZZZZZZZZZZZ",
"ZZZZZZZZZZZZZZZZZZZZZZZZZZZZZZZZZZZZZZZZZZZZZZZMvzkkkkkkZZZZZZZZZZZZZZZZZZZZZZZZZZ;;----==ZZZZZZZZZZZZZZZZZZZZZZZZZZZZZZZZZZZZZZ",
"ZZZZZZZZZZZZZZZZZZZZZZZZZZZZZZZZZZZZZZZZZZZZZZ#%elclkkklkZZZZZZZZZZZZZZZZZZZZZZZZZ---==**&ZZZZZZZZZZZZZZZZZZZZZZZZZZZZZZZZZZZZZZ",
"ZZZZZZZZZZZZZZZZZZZZZZZZZZZZZZZZZZZZZZZZZZZZ&&&#X=pcckkkljZZZZZZZZZZZZZZZZZZZZZZZZZ=&*&&&&&ZZZZZZZZZZZZZZZZZZZZZZZZZZZZZZZZZZZZZ",
"ZZZZZZZZZZZZZZZZZZZZZZZZZZZZZZZZZZZZZZZZZZ&&&&&&&@X<fcckkllZZZZZZZZZZZZZZZZZZZZZZZZ&&&&&&&&ZZZZZZZZZZZZZZZZZZZZZZZZZZZZZZZZZZZZZ",
"ZZZZZZZZZZZZZZZZZZZZZZZZZZZZZZZZZZZZZZZZZ&&&&&&&&&&OO3NczkllZ@&&&&&ZZZZZZZZZZZZZZZZ&&&&&&&&ZZZZZZZZZZZZZZZZZZZZZZZZZZZZZZZZZZZZZ",
"ZZZZZZZZZZZZZZZZZZZZZZZZZZZZZZZZZZZZZZZ&&&&&&&&&&&&&%X#8xczc8.&&&&&&&ZZZZZZZZZZZZZZZ&&&&&&&ZZZZZZZZZZZZZZZZZZZZZZZZZZZZZZZZZZZZZ",
"ZZZZZZZZZZZZZZZZZZZZZZZZZZZZZZZZZZZZZZ&&&&&&&&&&&&&&&*#o&uzvz;X*&&&&&&ZZZZZZZZZZZZZZ&&&&&&&&ZZZZZZZZZZZZZZZZZZZZZZZZZZZZZZZZZZZZ",
"ZZZZZZZZZZZZZZZZZZZZZZZZZZZZZZZZZZZZZZZZZZZZZ&&&&&&&&&&&@X:fbz#O*&&&&&ZZZZZZZZZZZZZZ&&&&&&&&ZZZZZZZZZZZZZZZZZZZZZZZZZZZZZZZZZZZZ",
"ZZZZZZZZZZZZZZZZZZZZZZZZZZZZZZZZZZZZZ&&&&&&&ZZZZZZZZ&&&&&&OO3xj##&&&&&&ZZZZZZZZZZZZZ&&&&&&&&ZZZZZZZZZZZZZZZZZZZZZZZZZZZZZZZZZZZZ",
"ZZZZZZZZZZZZZZZZZZZZZZZZZZZZZZZZZZZZZ&&&&&&&&ZZZZZZZZZZZZZ*%X#su$%&&&&&ZZZZZZZZZZZZZ&&&&&&&&ZZZZZZZZZZZZZZZZZZZZZZZZZZZZZZZZZZZZ",
"ZZZZZZZZZZZZZZZZZZZZZZZZZZZZZZZZZZZZZ&&&&&&&ZZZZZZZZZZZZZZ&&&#O>-$&&&&&ZZZZZZZZZZZZZ&&&&&&&&ZZZZZZZZZZZZZZZZZZZZZZZZZZZZZZZZZZZZ",
"ZZZZZZZZZZZZZZZZZZZZZZZZZZZZZZZZZZZZZ&&&&&&&&ZZZZZZZZZZZZZ&&&&&#&&&&&&&ZZZZZZZZZZZZZ&&&&&&&&ZZZZZZZZZZZZZZZZZZZZZZZZZZZZZZZZZZZZ",
"ZZZZZZZZZZZZZZZZZZZZZZZZZZZZZZZZZZZZZ&&&&&&&&ZZZZZZZZZZZZZ&&&&&&&&&&&&&ZZZZZZZZZZZZZ&&&&&&&&ZZZZZZZZZZZZZZZZZZZZZZZZZZZZZZZZZZZZ",
"ZZZZZZZZZZZZZZZZZZZZZZZZZZZZZZZZZZZZZ&&&&&&&&ZZZZZZZZZZZZZ&&&&&&&&&&&&ZZZZZZZZZZZZZZ&&&&&&&&ZZZZZZZZZZZZZZZZZZZZZZZZZZZZZZZZZZZZ",
"ZZZZZZZZZZZZZZZZZZZZZZZZZZZZZZZZZZZZZ&&&&&&&&ZZZZZZZZZZZZZZ&&&&&&&&&&&ZZZZZZZZZZZZZZ&&&&&&&&ZZZZZZZZZZZZZZZZZZZZZZZZZZZZZZZZZZZZ",
"ZZZZZZZZZZZZZZZZZZZZZZZZZZZZZZZZZZZZZ&&&&&&&&ZZZZZZZZZZZZZZZ&&&&&&&&&ZZZZZZZZZZZZZZZ&&&&&&&ZZZZZZZZZZZZZZZZZZZZZZZZZZZZZZZZZZZZZ",
"ZZZZZZZZZZZZZZZZZZZZZZZZZZZZZZZZZZZZZZ&&&&&&&ZZZZZZZZZZZZZZZZZ&&&&&ZZZZZZZZZZZZZZZZ&&&&&&&&ZZZZZZZZZZZZZZZZZZZZZZZZZZZZZZZZZZZZZ",
"ZZZZZZZZZZZZZZZZZZZZZZZZZZZZZZZZZZZZZZ&&&&&&&&ZZZZZZZZZZZZZZZZZZZZZZZZZZZZZZZZZZZZZ&&&&&&&&ZZZZZZZZZZZZZZZZZZZZZZZZZZZZZZZZZZZZZ",
"ZZZZZZZZZZZZZZZZZZZZZZZZZZZZZZZZZZZZZZ&&&&&&&&ZZZZZZZZZZZZZZZZZZZZZZZZZZZZZZZZZZZZZ&&&&&&&&ZZZZZZZZZZZZZZZZZZZZZZZZZZZZZZZZZZZZZ",
"ZZZZZZZZZZZZZZZZZZZZZZZZZZZZZZZZZZZZZZZ&&&&&&&&ZZZZZZZZZZZZZZZZZZZZZZZZZZZZZZZZZZZ&&&&&&&&ZZZZZZZZZZZZZZZZZZZZZZZZZZZZZZZZZZZZZZ",
"ZZZZZZZZZZZZZZZZZZZZZZZZZZZZZZZZZZZZZZZ&&&&&&&&ZZZZZZZZZZZZZZZZZZZZZZZZZZZZZZZZZZZ&&&&&&&&ZZZZZZZZZZZZZZZZZZZZZZZZZZZZZZZZZZZZZZ",
"ZZZZZZZZZZZZZZZZZZZZZZZZZZZZZZZZZZZZZZZ&&&&&&&&&ZZZZZZZZZZZZZZZZZZZZZZZZZZZZZZZZZ&&&&&&&&&ZZZZZZZZZZZZZZZZZZZZZZZZZZZZZZZZZZZZZZ",
"ZZZZZZZZZZZZZZZZZZZZZZZZZZZZZZZZZZZZZZZZ&&&&&&&&&ZZZZZZZZZZZZZZZZZZZZZZZZZZZZZZZ&&&&&&&&&ZZZZZZZZZZZZZZZZZZZZZZZZZZZZZZZZZZZZZZZ",
"ZZZZZZZZZZZZZZZZZZZZZZZZZZZZZZZZZZZZZZZZ&&&&&&&&&ZZZZZZZZZZZZZZZZZZZZZZZZZZZZZZ&&&&&&&&&&ZZZZZZZZZZZZZZZZZZZZZZZZZZZZZZZZZZZZZZZ",
"ZZZZZZZZZZZZZZZZZZZZZZZZZZZZZZZZZZZZZZZZZ&&&&&&&&&ZZZZZZZZZZZZZZZZZZZZZZZZZZZZZ&&&&&&&&&ZZZZZZZZZZZZZZZZZZZZZZZZZZZZZZZZZZZZZZZZ",
"ZZZZZZZZZZZZZZZZZZZZZZZZZZZZZZZZZZZZZZZZZZ&&&&&&&&&ZZZZZZZZZZZZZZZZZZZZZZZZZZ&&&&&&&&&&ZZZZZZZZZZZZZZZZZZZZZZZZZZZZZZZZZZZZZZZZZ",
"ZZZZZZZZZZZZZZZZZZZZZZZZZZZZZZZZZZZZZZZZZZ&&&&&&&&&&&ZZZZZZZZZZZZZZZZZZZZZZZ&&&&&&&&&&&ZZZZZZZZZZZZZZZZZZZZZZZZZZZZZZZZZZZZZZZZZ",
"ZZZZZZZZZZZZZZZZZZZZZZZZZZZZZZZZZZZZZZZZZZZ&&&&&&&&&&&ZZZZZZZZZZZZZZZZZZZZZ&&&&&&&&&&&ZZZZZZZZZZZZZZZZZZZZZZZZZZZZZZZZZZZZZZZZZZ",
"ZZZZZZZZZZZZZZZZZZZZZZZZZZZZZZZZZZZZZZZZZZZZ&&&&&&&&&&&&ZZZZZZZZZZZZZZZZZ&&&&&&&&&&&&ZZZZZZZZZZZZZZZZZZZZZZZZZZZZZZZZZZZZZZZZZZZ",
"ZZZZZZZZZZZZZZZZZZZZZZZZZZZZZZZZZZZZZZZZZZZZZ&&&&&&&&&&&&&&ZZZZZZZZZZZ&&&&&&&&&&&&&&ZZZZZZZZZZZZZZZZZZZZZZZZZZZZZZZZZZZZZZZZZZZZ",
"ZZZZZZZZZZZZZZZZZZZZZZZZZZZZZZZZZZZZZZZZZZZZZZ&&&&&&&&&&&&&&&&&&&&&&&&&&&&&&&&&&&&&ZZZZZZZZZZZZZZZZZZZZZZZZZZZZZZZZZZZZZZZZZZZZZ",
"ZZZZZZZZZZZZZZZZZZZZZZZZZZZZZZZZZZZZZZZZZZZZZZZ&&&&&&&&&&&&&&&&&&&&&&&&&&&&&&&&&&&ZZZZZZZZZZZZZZZZZZZZZZZZZZZZZZZZZZZZZZZZZZZZZZ",
"ZZZZZZZZZZZZZZZZZZZZZZZZZZZZZZZZZZZZZZZZZZZZZZZZ&&&&&&&&&&&&&&&&&&&&&&&&&&&&&&&&&ZZZZZZZZZZZZZZZZZZZZZZZZZZZZZZZZZZZZZZZZZZZZZZZ",
"ZZZZZZZZZZZZZZZZZZZZZZZZZZZZZZZZZZZZZZZZZZZZZZZZZZ&&&&&&&&&&&&&&&&&&&&&&&&&&&&&ZZZZZZZZZZZZZZZZZZZZZZZZZZZZZZZZZZZZZZZZZZZZZZZZZ",
"ZZZZZZZZZZZZZZZZZZZZZZZZZZZZZZZZZZZZZZZZZZZZZZZZZZZ&&&&&&&&&&&&&&&&&&&&&&&&&&&ZZZZZZZZZZZZZZZZZZZZZZZZZZZZZZZZZZZZZZZZZZZZZZZZZZ",
"ZZZZZZZZZZZZZZZZZZZZZZZZZZZZZZZZZZZZZZZZZZZZZZZZZZZZZ&&&&&&&&&&&&&&&&&&&&&&&ZZZZZZZZZZZZZZZZZZZZZZZZZZZZZZZZZZZZZZZZZZZZZZZZZZZZ",
"ZZZZZZZZZZZZZZZZZZZZZZZZZZZZZZZZZZZZZZZZZZZZZZZZZZZZZZZZ&&&&&&&&&&&&&&&&&ZZZZZZZZZZZZZZZZZZZZZZZZZZZZZZZZZZZZZZZZZZZZZZZZZZZZZZZ",
"ZZZZZZZZZZZZZZZZZZZZZZZZZZZZZZZZZZZZZZZZZZZZZZZZZZZZZZZZZZZZ&&&&&&&&&ZZZZZZZZZZZZZZZZZZZZZZZZZZZZZZZZZZZZZZZZZZZZZZZZZZZZZZZZZZZ",
"ZZZZZZZZZZZZZZZZZZZZZZZZZZZZZZZZZZZZZZZZZZZZZZZZZZZZZZZZZZZZZZZZZZZZZZZZZZZZZZZZZZZZZZZZZZZZZZZZZZZZZZZZZZZZZZZZZZZZZZZZZZZZZZZZ",
"ZZZZZZZZZZZZZZZZZZZZZZZZZZZZZZZZZZZZZZZZZZZZZZZZZZZZZZZZZZZZZZZZZZZZZZZZZZZZZZZZZZZZZZZZZZZZZZZZZZZZZZZZZZZZZZZZZZZZZZZZZZZZZZZZ",
"ZZZZZZZZZZZZZZZZZZZZZZZZZZZZZZZZZZZZZZZZZZZZZZZZZZZZZZZZZZZZZZZZZZZZZZZZZZZZZZZZZZZZZZZZZZZZZZZZZZZZZZZZZZZZZZZZZZZZZZZZZZZZZZZZ",
"ZZZZZZZZZZZZZZZZZZZZZZZZZZZZZZZZZZZZZZZZZZZZZZZZZZZZZZZZZZZZZZZZZZZZZZZZZZZZZZZZZZZZZZZZZZZZZZZZZZZZZZZZZZZZZZZZZZZZZZZZZZZZZZZZ",
"ZZZZZZZZZZZZZZZZZZZZZZZZZZZZZZZZZZZZZZZZZZZZZZZZZZZZZZZZZZZZZZZZZZZZZZZZZZZZZZZZZZZZZZZZZZZZZZZZZZZZZZZZZZZZZZZZZZZZZZZZZZZZZZZZ",
"ZZZZZZZZZZZZZZZZZZZZZZZZZZZZZZZZZZZZZZZZZZZZZZZZZZZZZZZZZZZZZZZZZZZZZZZZZZZZZZZZZZZZZZZZZZZZZZZZZZZZZZZZZZZZZZZZZZZZZZZZZZZZZZZZ",
"ZZZZZZZZZZZZZZZZZZZZZZZZZZZZZZZZZZZZZZZZZZZZZZZZZZZZZZZZZZZZZZZZZZZZZZZZZZZZZZZZZZZZZZZZZZZZZZZZZZZZZZZZZZZZZZZZZZZZZZZZZZZZZZZZ",
"ZZZZZZZZZZZZZZZZZZZZZZZZZZZZZZZZZZZZZZZZZZZZZZZZZZZZZZZZZZZZZZZZZZZZZZZZZZZZZZZZZZZZZZZZZZZZZZZZZZZZZZZZZZZZZZZZZZZZZZZZZZZZZZZZ",
"ZZZZZZZZZZZZZZZZZZZZZZZZZZZZZZZZZZZZZZZZZZZZZZZZZZZZZZZZZZZZZZZZZZZZZZZZZZZZZZZZZZZZZZZZZZZZZZZZZZZZZZZZZZZZZZZZZZZZZZZZZZZZZZZZ",
"ZZZZZZZZZZZZZZZZZZZZZZZZZZZZZZZZZZZZZZZZZZZZZZZZZZZZZZZZZZZZZZZZZZZZZZZZZZZZZZZZZZZZZZZZZZZZZZZZZZZZZZZZZZZZZZZZZZZZZZZZZZZZZZZZ",
"ZZZZZZZZZZZZZZZZZZZZZZZZZZZZZZZZZZZZZZZZZZZZZZZZZZZZZZZZZZZZZZZZZZZZZZZZZZZZZZZZZZZZZZZZZZZZZZZZZZZZZZZZZZZZZZZZZZZZZZZZZZZZZZZZ",
"ZZZZZZZZZZZZZZZZZZZZZZZZZZZZZZZZZZZZZZZZZZZZZZZZZZZZZZZZZZZZZZZZZZZZZZZZZZZZZZZZZZZZZZZZZZZZZZZZZZZZZZZZZZZZZZZZZZZZZZZZZZZZZZZZ",
"ZZZZZZZZZZZZZZZZZZZZZZZZZZZZZZZZZZZZZZZZZZZZZZZZZZZZZZZZZZZZZZZZZZZZZZZZZZZZZZZZZZZZZZZZZZZZZZZZZZZZZZZZZZZZZZZZZZZZZZZZZZZZZZZZ",
"ZZZZZZZZZZZZZZZZZZZZZZZZZZZZZZZZZZZZZZZZZZZZZZZZZZZZZZZZZZZZZZZZZZZZZZZZZZZZZZZZZZZZZZZZZZZZZZZZZZZZZZZZZZZZZZZZZZZZZZZZZZZZZZZZ",
"ZZZZZZZZZZZZZZZZZZZZZZZZZZZZZZZZZZZZZZZZZZZZZZZZZZZZZZZZZZZZZZZZZZZZZZZZZZZZZZZZZZZZZZZZZZZZZZZZZZZZZZZZZZZZZZZZZZZZZZZZZZZZZZZZ",
"ZZZZZZZZZZZZZZZZZZZZZZZZZZZZZZZZZZZZZZZZZZZZZZZZZZZZZZZZZZZZZZZZZZZZZZZZZZZZZZZZZZZZZZZZZZZZZZZZZZZZZZZZZZZZZZZZZZZZZZZZZZZZZZZZ",
"ZZZZZZZZZZZZZZZZZZZZZZZZZZZZZZZZZZZZZZZZZZZZZZZZZZZZZZZZZZZZZZZZZZZZZZZZZZZZZZZZZZZZZZZZZZZZZZZZZZZZZZZZZZZZZZZZZZZZZZZZZZZZZZZZ",
"ZZZZZZZZZZZZZZZZZZZZZZZZZZZZZZZZZZZZZZZZZZZZZZZZZZZZZZZZZZZZZZZZZZZZZZZZZZZZZZZZZZZZZZZZZZZZZZZZZZZZZZZZZZZZZZZZZZZZZZZZZZZZZZZZ",
"ZZZZZZZkkkkkZZZZZkZZkkkkklkkZZZZ&&&&&&ZZZZZZZZ&&&&&&ZZZZZ&&ZZZZZZZ&&ZZ&&ZZZZZZ&&ZZ&&&&&&&&ZZ&&&&&&ZZZZZZZ&&&&&&ZZZZ&&&&&&&&ZZZZZ",
"ZZZZZZZkklkkkZZZkkZZkkkkkkkzZZZ&&&&&&&&&ZZZZ&&&&&&&&&ZZZZ&&ZZZZZZ&&&ZZ&&ZZZZZZ&&ZZ&&&&&&&&ZZ&&&&&&&ZZZZ&&&&&&&&&ZZZ&&&&&&&&ZZZZZ",
"ZZZZZZZkZZZZkkZZZklZZZZkkZZZZZ&&&ZZZZZ&&&ZZZ&&&ZZZZ&&&ZZZ&&&ZZZZZ&&&ZZ&&ZZZZZZ&&ZZ&&ZZZZZZZZ&&ZZZ&&ZZZ&&&ZZZZZ&&&ZZ&&ZZZZZZZZZZZ",
"ZZZZZZZkZZZZkkZZZkkZZZZkkZZZZ&&&ZZZZZZZ&ZZZ&&ZZZZZZZ&&&ZZ&&&ZZZZZ&&&ZZ&&&ZZZZ&&&ZZ&&ZZZZZZZZ&&ZZZZ&&ZZ&&ZZZZZZZ&ZZZ&&ZZZZZZZZZZZ",
"ZZZZZZZkkZZkkkZZZkkZZZZkkZZZZ&&ZZZZZZZZZZZZ&&ZZZZZZZZ&&ZZ&&&&ZZZ&&&&ZZ&&&ZZZZ&&&ZZ&&ZZZZZZZZ&&ZZZ&&&Z&&&ZZZZZZZZZZZ&&ZZZZZZZZZZZ",
"ZZZZZZZkkkkkkZZZZkkZZZZkkZZZZ&&ZZZZZZZZZZZ&&ZZZZZZZZZ&&ZZ&&&&ZZZ&&&&ZZ&&&&ZZ&&&&ZZ&&&&&&&&ZZ&&&&&&&ZZ&&ZZZZZZZZZZZZ&&&&&&&&ZZZZZ",
"ZZZZZZZkkkkkklZZZkkZZZZllZZZZ&&ZZZZZZZZZZZ&&ZZZZZZZZZ&&ZZ&&&&ZZ&&&&&ZZ&&&&ZZ&&&&ZZ&&&&&&&&ZZ&&&&&&ZZZ&&ZZZZZZZZZZZZ&&&&&&&&ZZZZZ",
"ZZZZZZZlZZZZkkkZZkkZZZZkkZZZZ&&ZZZZZZZZZZZ&&ZZZZZZZZZ&&ZZ&&Z&&Z&&Z&&ZZ&&&&ZZ&&&&ZZ&&&ZZZZZZZ&&&&&ZZZZ&&ZZZZZZZZZZZZ&&ZZZZZZZZZZZ",
"ZZZZZZZkZZZZZkkZZkkZZZZkkZZZZ&&ZZZZZZZZZZZZ&&ZZZZZZZZ&&ZZ&&Z&&&&&Z&&ZZ&ZZ&&&&ZZ&ZZ&&ZZZZZZZZ&&Z&&ZZZZ&&&ZZZZZZZZZZZ&&ZZZZZZZZZZZ",
"ZZZZZZZkZZZZZkkZZklZZZZkkZZZZZ&&ZZZZZZ&&ZZZ&&&ZZZZZZ&&ZZZ&&Z&&&&ZZ&&ZZ&&Z&&&&Z&&ZZ&&ZZZZZZZZ&&ZZ&&ZZZZ&&ZZZZZZZ&ZZZ&&ZZZZZZZZZZZ",
"ZZZZZZZklZZZkkZZZkkZZZZkkZZZZZ&&&&ZZZ&&&&ZZZ&&&ZZZ&&&&ZZZ&&ZZ&&&ZZ&&ZZ&&Z&&&&Z&&ZZ&&&ZZZZZZZ&&ZZ&&&ZZZZ&&&ZZZZ&&&ZZ&&ZZZZZZZZZZZ",
"ZZZZZZZkkkkkkkZZkkkZZZZkkZZZZZZ&&&&&&&&ZZZZZZ&&&&&&&&ZZZZ&&ZZ&&&ZZ&&ZZ&&ZZ&&ZZ&&ZZ&&&&&&&&ZZ&&ZZZ&&&ZZZZ&&&&&&&&ZZZ&&&&&&&&ZZZZZ",
"ZZZZZZZkkkkkZZZZZkZZZZZkkZZZZZZZZ&&&&&ZZZZZZZZ&&&&&ZZZZZZ&&ZZZ&ZZZ&&ZZ&ZZZ&&ZZZ&ZZZ&&&&&&&ZZ&&ZZZZ&&ZZZZZ&&&&&ZZZZZ&&&&&&&&ZZZZZ",
"ZZZZZZZZZZZZZZZZZZZZZZZZZZZZZZZZZZZZZZZZZZZZZZZZZZZZZZZZZZZZZZZZZZZZZZZZZZZZZZZZZZZZZZZZZZZZZZZZZZZZZZZZZZZZZZZZZZZZZZZZZZZZZZZZ",
"ZZZZZZZZZZZZZZZZZZZZZZZZZZZZZZZZZZZZZZZZZZZZZZZZZZZZZZZZZZZZZZZZZZZZZZZZZZZZZZZZZZZZZZZZZZZZZZZZZZZZZZZZZZZZZZZZZZZZZZZZZZZZZZZZ",
"ZZZZZZZZZZZZZZZZZZZZZZZZZZZZZZZZZZZZZZZZZZZZZZZZZZZZZZZZZZZZZZZZZZZZZZZZZZZZZZZZZZZZZZZZZZZZZZZZZZZZZZZZZZZZZZZZZZZZZZZZZZZZZZZZ",
"ZZZZZZZZZZZZZZZZZZZZZZZZZZZZZZZZZZZZZZZZZZZZZZZZZZZZZZZZZZZZZZZZZZZZZZZZZZZZZZZZZZZZZZZZZZZZZZZZZZZZZZZZZZZZZZZZZZZZZZZZZZZZZZZZ",
"ZZZZZZZZZZZZZZZZZZZZZZZZZZZZZZZZZZZZZZZZZZZZZZZZZZZZZZZZZZZZZZZZZZZZZZZZZZZZZZZZZZZZZZZZZZZZZZZZZZZZZZZZZZZZZZZZZZZZZZZZZZZZZZZZ",
"ZZZZZZZZZZZZZZZZZZZZZZZZZZZZZZZZZZZZZZZZZZZZZZZZZZZZZZZZZZZZZZZZZZZZZZZZZZZZZZZZZZZZZZZZZZZZZZZZZZZZZZZZZZZZZZZZZZZZZZZZZZZZZZZZ",
"ZZZZZZZZZZZZZZZZZZZZZZZZZZZZZZZZZZZZZZZZZZZZZZZZZZZZZZZZZZZZZZZZZZZZZZZZZZZZZZZZZZZZZZZZZZZZZZZZZZZZZZZZZZZZZZZZZZZZZZZZZZZZZZZZ",
"ZZZZZZZZZZZZZZZZZZZZZZZZZZZZZZZZZZZZZZZZZZZZZZZZZZZZZZZZZZZZZZZZZZZZZZZZZZZZZZZZZZZZZZZZZZZZZZZZZZZZZZZZZZZZZZZZZZZZZZZZZZZZZZZZ",
"ZZZZZZZZZZZZZZZZZZZZZZZZZZZZZZZZZZZZZZZZZZZZZZZZZZZZZZZZZZZZZZZZZZZZZZZZZZZZZZZZZZZZZZZZZZZZZZZZZZZZZZZZZZZZZZZZZZZZZZZZZZZZZZZZ",
"ZZZZZZZZZZZZZZZZZZZZZZZZZZZZZZZZZZZZZZZZZZZZZZZZZZZZZZZZZZZZZZZZZZZZZZZZZZZZZZZZZZZZZZZZZZZZZZZZZZZZZZZZZZZZZZZZZZZZZZZZZZZZZZZZ",
"ZZZZZZZZZZZZZZZZZZZZZZZZZZZZZZZZZZZZZZZZZZZZZZZZZZZZZZZZZZZZZZZZZZZZZZZZZZZZZZZZZZZZZZZZZZZZZZZZZZZZZZZZZZZZZZZZZZZZZZZZZZZZZZZZ",
"ZZZZZZZZZZZZZZZZZZZZZZZZZZZZZZZZZZZZZZZZZZZZZZZZZZZZZZZZZZZZZZZZZZZZZZZZZZZZZZZZZZZZZZZZZZZZZZZZZZZZZZZZZZZZZZZZZZZZZZZZZZZZZZZZ",
"ZZZZZZZZZZZZZZZZZZZZZZZZZZZZZZZZZZZZZZZZZZZZZZZZZZZZZZZZZZZZZZZZZZZZZZZZZZZZZZZZZZZZZZZZZZZZZZZZZZZZZZZZZZZZZZZZZZZZZZZZZZZZZZZZ",
"ZZZZZZZZZZZZZZZZZZZZZZZZZZZZZZZZZZZZZZZZZZZZZZZZZZZZZZZZZZZZZZZZZZZZZZZZZZZZZZZZZZZZZZZZZZZZZZZZZZZZZZZZZZZZZZZZZZZZZZZZZZZZZZZZ",
"ZZZZZZZZZZZZZZZZZZZZZZZZZZZZZZZZZZZZZZZZZZZZZZZZZZZZZZZZZZZZZZZZZZZZZZZZZZZZZZZZZZZZZZZZZZZZZZZZZZZZZZZZZZZZZZZZZZZZZZZZZZZZZZZZ",
"ZZZZZZZZZZZZZZZZZZZZZZZZZZZZZZZZZZZZZZZZZZZZZZZZZZZZZZZZZZZZZZZZZZZZZZZZZZZZZZZZZZZZZZZZZZZZZZZZZZZZZZZZZZZZZZZZZZZZZZZZZZZZZZZZ"
};
