/* XPM */
static char *_ad417b7389b46d9baf1e9e868373462[] = {
/* columns rows colors chars-per-pixel */
"16 16 17 1 ",
"  c #172536",
". c #303133",
"X c gray20",
"o c #343433",
"O c #353433",
"+ c #3A3633",
"@ c #433B32",
"# c #644C2E",
"$ c #74532C",
"% c #956329",
"& c #A46A27",
"* c #CB7E23",
"= c #CC7E23",
"- c #F7931E",
"; c #F3941E",
": c #D08422",
"> c None",
/* pixels */
">>>>>>>>>>>>>>>>",
">>>>>>>>>>>>>>>>",
">>>>>>>>>>>>>>>>",
">>>>>>>*=&>>>>>>",
">>>>>>;>>%$>>>>>",
">>>>>>:>>>@+>>>>",
">>>>> >#O>>X>>>>",
">>>>>O>>>>XX>>>>",
">>>>>OX>>>X>>>>>",
">>>>>>XXXX>>>>>>",
">>>>>>>>>>>>>>>>",
">>>>>>>>>>>>>>>>",
">>>>>>>>>>>>>>>>",
">->>>>>XXXXXX>>>",
">>>>>>>>>>>>>>>>",
">>>>>>>>>>>>>>>>"
};
