<?xml version="1.0" encoding="utf-8"?>
<!-- Generator: Adobe Illustrator 19.0.0, SVG Export Plug-In . SVG Version: 6.00 Build 0)  -->
<svg version="1.1"
	 id="svg2" xmlns:cc="http://creativecommons.org/ns#" xmlns:rdf="http://www.w3.org/1999/02/22-rdf-syntax-ns#" xmlns:svg="http://www.w3.org/2000/svg" xmlns:dc="http://purl.org/dc/elements/1.1/" xmlns:inkscape="http://www.inkscape.org/namespaces/inkscape" xmlns:sodipodi="http://sodipodi.sourceforge.net/DTD/sodipodi-0.dtd" inkscape:version="0.48.2 r9819" sodipodi:docname="bitcoin-logo-noshadow.svg"
	 xmlns="http://www.w3.org/2000/svg" xmlns:xlink="http://www.w3.org/1999/xlink" x="0px" y="0px" viewBox="206 -116 1024 1024"
	 style="enable-background:new 206 -116 1024 1024;" xml:space="preserve">
<style type="text/css">
	.st0{display:none;}
	.st1{display:inline;fill:#FFFFFF;}
	.st2{display:inline;}
	.st3{fill:url(#SVGID_1_);}
	.st4{fill:url(#SVGID_2_);}
	.st5{display:inline;fill:url(#SVGID_3_);}
	.st6{fill:#333333;}
	.st7{fill:#F7931E;}
	.st8{clip-path:url(#SVGID_5_);fill:url(#SVGID_6_);}
</style>
<g class="st0">
	<circle class="st1" cx="1300.2" cy="12.2" r="353.1"/>
	<g class="st2">
		
			<radialGradient id="SVGID_1_" cx="1458.7184" cy="-66.3734" r="34.4318" gradientTransform="matrix(1.7655 0 0 1.7655 -1235.5234 26.0413)" gradientUnits="userSpaceOnUse">
			<stop  offset="0" style="stop-color:#F9AA4B"/>
			<stop  offset="1" style="stop-color:#F7931A"/>
		</radialGradient>
		<path class="st3" d="M1299.6-129.7l-24.7,99c28,7,114.3,35.4,128.3-20.6C1417.8-109.7,1327.6-122.7,1299.6-129.7z"/>
	</g>
	<g class="st2">
		
			<radialGradient id="SVGID_2_" cx="1443.1765" cy="21.7527" r="39.858" gradientTransform="matrix(1.7655 0 0 1.7655 -1235.5234 26.0413)" gradientUnits="userSpaceOnUse">
			<stop  offset="0" style="stop-color:#F9AA4B"/>
			<stop  offset="1" style="stop-color:#F7931A"/>
		</radialGradient>
		<path class="st4" d="M1262.5,19.3l-27.2,109.2c33.6,8.3,137.3,41.6,152.6-19.9C1403.9,44.3,1296.1,27.7,1262.5,19.3z"/>
	</g>
	
		<radialGradient id="SVGID_3_" cx="1437.2281" cy="-6.8485" r="255.9972" gradientTransform="matrix(1.7655 0 0 1.7655 -1235.5234 26.0413)" gradientUnits="userSpaceOnUse">
		<stop  offset="0" style="stop-color:#F9AA4B"/>
		<stop  offset="1" style="stop-color:#F7931A"/>
	</radialGradient>
	<path class="st5" d="M1411.2-424.5c-242.1-60.4-487.3,87-547.7,329.2c-60.4,242.1,87,487.4,329,547.7
		c242.2,60.4,487.4-87,547.8-329.1S1653.4-364.1,1411.2-424.5z M1501.2-50.4c-6.5,44-30.9,65.3-63.3,72.8
		c44.5,23.2,67.1,58.7,45.6,120.3c-26.8,76.5-90.4,82.9-174.9,66.9l-20.6,82.3l-49.6-12.4l20.3-81.1c-12.9-3.2-26-6.6-39.5-10.3
		l-20.3,81.5l-49.5-12.4l20.5-82.4c-11.6-3-23.3-6.1-35.4-9.1l-64.5-16.1l24.6-56.8c0,0,36.5,9.7,36,9c14,3.5,20.3-5.7,22.7-11.8
		l32.4-130l0.1-0.4l23.1-92.8c0.6-10.5-3-23.8-23.1-28.8c0.8-0.5-36-9-36-9l13.2-53l68.4,17.1l-0.1,0.3c10.3,2.6,20.9,5,31.7,7.4
		l20.3-81.4l49.6,12.4l-19.9,79.9c13.3,3,26.7,6.1,39.7,9.4l19.8-79.3l49.6,12.4l-20.3,81.5C1464.4-142.9,1510.2-110.5,1501.2-50.4z
		"/>
</g>
<path class="st6" d="M692.5,232.1c-13.6,24.3-5,55,19.3,68.7c24.3,13.6,55,5,68.7-19.3c13.6-24.3,5-55-19.3-68.7
	C736.9,199.2,706.1,207.8,692.5,232.1"/>
<path class="st6" d="M837.7,76.5C764.2,35.3,676.4,43.7,612.9,91l33.8,45.2c46.2-34.3,110-40.5,163.4-10.5
	c72.4,40.7,98.2,132.3,57.5,204.8c-40.7,72.4-132.3,98.2-204.8,57.5c-54.2-30.4-82.2-89.4-75.9-147.5l-56.1-6.2
	c-8.7,79.9,29.9,161,104.4,202.8c99.6,55.9,225.6,20.5,281.5-79.1C972.7,258.5,937.3,132.4,837.7,76.5"/>
<polygon class="st6" points="729,251.5 606.4,94.5 607.1,182.8 531.3,228.3 "/>
<polygon class="st7" points="606.3,94.6 606.4,183.3 735.6,256.7 "/>
<g>
	<defs>
		<path id="SVGID_4_" d="M612.9,91l33.8,45.2c46.2-34.3,110-40.5,163.4-10.5c33.6,18.8,57.1,48.6,68.6,82.4l53.3-18.3
			c-15.9-46.4-48.2-87.3-94.4-113.2c-32-18-66.8-26.5-101-26.5C692.3,50,648.7,64.3,612.9,91"/>
	</defs>
	<clipPath id="SVGID_5_">
		<use xlink:href="#SVGID_4_"  style="overflow:visible;"/>
	</clipPath>
	
		<linearGradient id="SVGID_6_" gradientUnits="userSpaceOnUse" x1="-32.1017" y1="1894.1068" x2="-30.9937" y2="1894.1068" gradientTransform="matrix(67.4042 195.7559 195.7559 -67.4042 -367886 133968.5469)">
		<stop  offset="0" style="stop-color:#F7931E"/>
		<stop  offset="1" style="stop-color:#333333"/>
	</linearGradient>
	<polygon class="st8" points="814.2,-48.2 980.7,191.3 646.7,306.3 564.2,66.8 	"/>
</g>
<path class="st7" d="M350.1,643.5c7.6,6,11.4,13.9,11.4,23.5c0,8.2-2.9,15.2-8.7,21.1c-5.9,5.9-12.9,8.8-21.1,8.8h-32.8v-96.5h31.9
	c7.1,0,13.3,2.5,18.4,7.6c5,5,7.5,11.1,7.5,18.3C356.6,632.9,354.4,638.6,350.1,643.5 M313.9,637.2h16.9c3,0,5.6-1.1,7.7-3.2
	c2.2-2.1,3.2-4.7,3.2-7.7c0-3-1.1-5.6-3.2-7.7c-2.1-2.2-4.7-3.2-7.7-3.2h-16.9V637.2z M331.6,681.9c4.1,0,7.5-1.5,10.4-4.4
	c3-2.9,4.4-6.4,4.4-10.4c0-4.1-1.5-7.6-4.4-10.4c-2.9-2.9-6.4-4.4-10.4-4.4h-17.8v29.7H331.6z"/>
<rect x="375.3" y="600.4" class="st7" width="14.9" height="96.5"/>
<polygon class="st7" points="459.3,600.4 459.3,615.4 438.5,615.4 438.5,696.9 423.5,696.9 423.5,615.4 402.8,615.4 402.8,600.4 "/>
<path class="st6" d="M517.3,614.3c-9.3,0-17.1,3.4-23.7,10.1c-6.6,6.7-9.9,14.8-9.9,24.3c0,9.5,3.3,17.6,9.9,24.4
	c6.5,6.7,14.4,10.1,23.7,10.1c11.9,0,21.3-5.1,28-15.2l13,8.7c-4.6,6.9-10.5,12.3-17.7,16.3c-7.2,3.9-15,5.9-23.2,5.9
	c-13.5,0-25.1-4.9-34.8-14.7c-9.6-9.8-14.4-21.6-14.4-35.4c0-13.8,4.8-25.6,14.4-35.4c9.6-9.8,21.2-14.7,34.8-14.7
	c8.3,0,16,1.9,23.2,5.8c7.2,4,13.1,9.4,17.7,16.3l-13,8.6C538.5,619.4,529.2,614.3,517.3,614.3"/>
<path class="st6" d="M618.4,599.2c13.4,0,24.9,4.9,34.4,14.6c9.5,9.6,14.3,21.3,14.3,35c0,13.7-4.8,25.3-14.3,35
	c-9.5,9.7-21,14.6-34.4,14.6c-13.4,0-24.9-4.9-34.5-14.6c-9.5-9.7-14.3-21.4-14.3-35c0-13.7,4.8-25.3,14.3-35
	C593.5,604,605,599.2,618.4,599.2 M618.4,682.9c9.2,0,17-3.3,23.5-10c6.5-6.7,9.8-14.8,9.8-24.2c0-9.4-3.3-17.4-9.8-24.1
	c-6.5-6.7-14.4-10-23.5-10c-9.2,0-17.1,3.3-23.5,10c-6.6,6.7-9.8,14.7-9.8,24.1c0,9.4,3.3,17.5,9.8,24.2
	C601.3,679.6,609.2,682.9,618.4,682.9"/>
<polygon class="st6" points="692.8,600.4 720.8,669.3 748.7,600.4 761.3,600.4 761.3,696.9 746.3,696.9 746.3,646.3 725.7,696.9 
	715.8,696.9 695.3,646.3 695.3,696.9 680.3,696.9 680.3,600.4 "/>
<polygon class="st6" points="788.4,600.4 816.3,669.3 844.3,600.4 856.8,600.4 856.8,696.9 841.8,696.9 841.8,646.3 821.3,696.9 
	811.4,696.9 790.8,646.3 790.8,696.9 775.8,696.9 775.8,600.4 "/>
<polygon class="st6" points="871.4,600.4 930.7,600.4 930.7,615.4 886.4,615.4 886.4,641.1 930.7,641.1 930.7,656.1 886.4,656.1 
	886.4,682 930.7,682 930.7,696.9 871.4,696.9 "/>
<path class="st6" d="M990.3,696.9l-31.4-44.7v44.7h-15v-96.5h31.9c7.8,0,14.1,2.8,18.9,8.3c4.5,5,6.8,11.1,7.1,18.3
	c0.3,8.6-1.9,15.4-6.7,20.4c-3.7,4-9,6.6-15.7,7.8l29.3,41.7H990.3z M965.6,641.1c9.8,0,16.1-1.4,18.7-4.1c1.8-1.9,2.6-5,2.4-9.4
	c-0.1-2.6-0.7-4.8-1.8-6.9c-1.8-3.6-4.9-5.4-9.2-5.4h-16.9v25.7H965.6z"/>
<path class="st6" d="M1062.4,614.3c-9.3,0-17.1,3.4-23.7,10.1c-6.6,6.7-9.9,14.8-9.9,24.3c0,9.5,3.3,17.6,9.9,24.4
	c6.5,6.7,14.4,10.1,23.7,10.1c11.9,0,21.3-5.1,28-15.2l13,8.7c-4.6,6.9-10.5,12.3-17.7,16.3c-7.2,3.9-15,5.9-23.2,5.9
	c-13.5,0-25.1-4.9-34.8-14.7c-9.6-9.8-14.4-21.6-14.4-35.4c0-13.8,4.8-25.6,14.4-35.4c9.6-9.8,21.2-14.7,34.8-14.7
	c8.3,0,16,1.9,23.2,5.8c7.2,4,13.1,9.4,17.7,16.3l-13,8.6C1083.6,619.4,1074.3,614.3,1062.4,614.3"/>
<polygon class="st6" points="1116.1,600.4 1175.4,600.4 1175.4,615.4 1131.1,615.4 1131.1,641.1 1175.4,641.1 1175.4,656.1 
	1131.1,656.1 1131.1,682 1175.4,682 1175.4,696.9 1116.1,696.9 "/>
</svg>
